HIERARCHY
ROOT Hips
{
	OFFSET 0.00000 0.00000 0.00000
	CHANNELS 6 Xposition Yposition Zposition Zrotation Yrotation Xrotation 
	JOINT LHipJoint
	{
		OFFSET 0 0 0
		CHANNELS 3 Zrotation Yrotation Xrotation
		JOINT LeftUpLeg
		{
			OFFSET 1.75344 -1.53157 0.77399
			CHANNELS 3 Zrotation Yrotation Xrotation
			JOINT LeftLeg
			{
				OFFSET 2.25415 -6.19323 0.00000
				CHANNELS 3 Zrotation Yrotation Xrotation
				JOINT LeftFoot
				{
					OFFSET 2.30342 -6.32861 0.00000
					CHANNELS 3 Zrotation Yrotation Xrotation
					JOINT LeftToeBase
					{
						OFFSET 0.10958 -0.30108 1.49206
						CHANNELS 3 Zrotation Yrotation Xrotation
						End Site
						{
							OFFSET 0.00000 -0.00000 0.77783
						}
					}
				}
			}
		}
	}
	JOINT RHipJoint
	{
		OFFSET 0 0 0
		CHANNELS 3 Zrotation Yrotation Xrotation
		JOINT RightUpLeg
		{
			OFFSET -1.81912 -1.53156 0.77399
			CHANNELS 3 Zrotation Yrotation Xrotation
			JOINT RightLeg
			{
				OFFSET -2.22882 -6.12365 0.00000
				CHANNELS 3 Zrotation Yrotation Xrotation
				JOINT RightFoot
				{
					OFFSET -2.21943 -6.09785 0.00000
					CHANNELS 3 Zrotation Yrotation Xrotation
					JOINT RightToeBase
					{
						OFFSET -0.18931 -0.52012 1.59379
						CHANNELS 3 Zrotation Yrotation Xrotation
						End Site
						{
							OFFSET -0.00000 -0.00000 0.84686
						}
					}
				}
			}
		}
	}
	JOINT LowerBack
	{
		OFFSET 0 0 0
		CHANNELS 3 Zrotation Yrotation Xrotation
		JOINT Spine
		{
			OFFSET -0.00200 1.66634 -0.14248
			CHANNELS 3 Zrotation Yrotation Xrotation
			JOINT Spine1
			{
				OFFSET -0.00875 1.64542 0.09514
				CHANNELS 3 Zrotation Yrotation Xrotation
				JOINT Neck
				{
					OFFSET 0 0 0
					CHANNELS 3 Zrotation Yrotation Xrotation
					JOINT Neck1
					{
						OFFSET 0.02257 1.59605 0.00839
						CHANNELS 3 Zrotation Yrotation Xrotation
						JOINT Head
						{
							OFFSET -0.10214 1.57530 -0.23335
							CHANNELS 3 Zrotation Yrotation Xrotation
							End Site
							{
								OFFSET -0.03588 1.60717 -0.08062
							}
						}
					}
				}
				JOINT LeftShoulder
				{
					OFFSET 0 0 0
					CHANNELS 3 Zrotation Yrotation Xrotation
					JOINT LeftArm
					{
						OFFSET 2.54983 1.10186 0.40078
						CHANNELS 3 Zrotation Yrotation Xrotation
						JOINT LeftForeArm
						{
							OFFSET 4.28840 -0.00000 0.00000
							CHANNELS 3 Zrotation Yrotation Xrotation
							JOINT LeftHand
							{
								OFFSET 3.06552 -0.00000 -0.00000
								CHANNELS 3 Zrotation Yrotation Xrotation
								JOINT LeftFingerBase
								{
									OFFSET 0 0 0
									CHANNELS 3 Zrotation Yrotation Xrotation
									JOINT LeftHandIndex1
									{
										OFFSET 0.75304 -0.00000 0.00000
										CHANNELS 3 Zrotation Yrotation Xrotation
										End Site
										{
											OFFSET 0.60712 -0.00000 0.00000
										}
									}
								}
								JOINT LThumb
								{
									OFFSET 0 0 0
									CHANNELS 3 Zrotation Yrotation Xrotation
									End Site
									{
										OFFSET 0.61639 -0.00000 0.61639
									}
								}
							}
						}
					}
				}
				JOINT RightShoulder
				{
					OFFSET 0 0 0
					CHANNELS 3 Zrotation Yrotation Xrotation
					JOINT RightArm
					{
						OFFSET -2.60909 1.35448 0.21802
						CHANNELS 3 Zrotation Yrotation Xrotation
						JOINT RightForeArm
						{
							OFFSET -4.52172 -0.00000 -0.00000
							CHANNELS 3 Zrotation Yrotation Xrotation
							JOINT RightHand
							{
								OFFSET -2.89140 -0.00000 0.00000
								CHANNELS 3 Zrotation Yrotation Xrotation
								JOINT RightFingerBase
								{
									OFFSET 0 0 0
									CHANNELS 3 Zrotation Yrotation Xrotation
									JOINT RightHandIndex1
									{
										OFFSET -0.68054 -0.00000 0.00000
										CHANNELS 3 Zrotation Yrotation Xrotation
										End Site
										{
											OFFSET -0.54867 -0.00000 0.00000
										}
									}
								}
								JOINT RThumb
								{
									OFFSET 0 0 0
									CHANNELS 3 Zrotation Yrotation Xrotation
									End Site
									{
										OFFSET -0.55705 -0.00000 0.55705
									}
								}
							}
						}
					}
				}
			}
		}
	}
}
MOTION
Frames: 7
Frame Time: .0083333
8.4959 15.5027 22.7052 0 0 0 0 0 0 -21 0 0 0 0 0 0 0 0 0 0 0 0 0 0 21 0 0 0 0 0 0 0 0 0 0 0 0 0 0 0 0 0 0 0 0 0 0 -16 0 0 21 0 0 11 0 0 0 -8 0 0 0 0 0 0 0 0 0 0 0 0 0 0 0 0 0 0 0 0 8 0 0 0 0 0 0 0 0 0 0 0 0 0 0 0 0 0
8.4959 15.5027 22.7052 -178.9100 0.4782 -179.5850 0.0000 0.0000 0.0000 -23.6318 -16.9884 -2.0922 1.7165 8.2487 23.4721 1.0217 8.6912 -24.1059 4.2745 -12.5170 -37.5863 0.0000 0.0000 0.0000 25.3398 13.5373 2.4500 -0.9589 -6.2355 17.4691 0.3846 -19.4890 -24.2952 -0.0325 1.1646 -3.2018 0.9028 1.0891 9.0897 -0.0772 1.6452 -4.4822 -0.8826 0.7606 -9.8735 -6.0772 -2.7673 -6.1695 6.3432 -3.5903 4.3970 3.0252 -1.7122 2.7889 0.0000 0.0000 0.0000 -84.6803 15.5918 39.9151 20.7381 -31.5214 -5.9124 -0.0000 -0.0000 9.0385 3.6315 -36.1027 -2.1417 -7.1250 0.0000 -0.0000 -15.9496 -4.9611 17.9529 0.0000 0.0000 0.0000 84.0152 -13.5650 51.6058 -19.9946 30.6358 -5.5286 0.0000 0.0000 17.7184 -16.0472 -54.9038 13.2430 7.1250 -0.0000 -0.0000 73.7533 -77.7040 -61.3365
8.4962 15.5007 22.7045 -178.9260 0.3751 -179.5930 0.0000 0.0000 0.0000 -23.6459 -17.0386 -2.0933 1.7133 8.2414 23.4497 0.9910 8.8074 -23.9435 4.3857 -12.6567 -38.0968 0.0000 0.0000 0.0000 25.3279 13.4650 2.4152 -0.9631 -6.2487 17.5077 0.3977 -19.5624 -24.2928 -0.0384 1.2649 -3.4781 0.9147 1.0690 9.1037 -0.0930 1.6177 -4.4712 -0.9015 0.7457 -9.8694 -6.0172 -2.8010 -6.0171 6.2625 -3.6384 4.2988 2.9833 -1.7394 2.7257 0.0000 0.0000 0.0000 -84.4099 15.5555 40.4075 20.7884 -31.5805 -5.9387 -0.0000 -0.0000 8.7488 3.2290 -36.2704 -1.9116 -7.1250 0.0000 -0.0000 -16.1684 -5.0795 18.2503 0.0000 0.0000 0.0000 83.8702 -13.6250 51.7448 -20.0284 30.6765 -5.5458 0.0000 0.0000 18.2845 -17.2570 -54.1344 14.1302 7.1250 -0.0000 -0.0000 70.0364 -78.0507 -58.1870
8.4962 15.5010 22.7038 -178.9520 0.2584 -179.6340 0.0000 0.0000 0.0000 -23.6871 -17.0198 -2.0557 1.7181 8.2524 23.4833 0.9975 8.7209 -23.9290 4.4038 -12.6792 -38.1793 0.0000 0.0000 0.0000 25.3113 13.3795 2.4702 -0.9573 -6.2301 17.4536 0.4065 -19.6259 -24.3136 -0.0376 1.2511 -3.4401 0.9271 1.0505 9.1648 -0.1012 1.5932 -4.4613 -0.9143 0.7320 -9.8946 -6.1063 -2.8318 -5.8601 6.3167 -3.6800 4.2058 3.0171 -1.7626 2.6721 0.0000 -0.0000 0.0000 -84.1943 15.5718 40.7228 20.8644 -31.6698 -5.9786 -0.0000 -0.0000 8.5866 2.5437 -36.1737 -1.5020 -7.1250 0.0000 -0.0000 -16.5224 -4.9171 18.6412 0.0000 -0.0000 0.0000 83.6111 -13.7352 52.0900 -20.0596 30.7141 -5.5618 0.0000 0.0000 18.7910 -18.9689 -53.4202 15.4304 7.1250 -0.0000 -0.0000 66.3062 -78.5800 -55.2577
8.4970 15.5025 22.7032 -178.9490 0.1579 -179.6890 0.0000 0.0000 0.0000 -23.6867 -16.9596 -2.0270 1.7224 8.2622 23.5133 1.0108 8.5892 -23.9358 4.4267 -12.7075 -38.2833 0.0000 0.0000 0.0000 25.3396 13.3358 2.5415 -0.9583 -6.2336 17.4637 0.3685 -19.5597 -24.5592 -0.0203 0.9204 -2.5297 0.9699 1.0354 9.2275 -0.1162 1.5755 -4.4317 -0.9522 0.7192 -9.8979 -6.1209 -2.8541 -5.7251 6.3554 -3.7119 4.0455 3.0313 -1.7800 2.5967 0.0000 0.0000 0.0000 -83.8530 15.6366 41.2051 21.0444 -31.8801 -6.0734 -0.0000 -0.0000 8.3113 2.5237 -36.0066 -1.4843 -7.1250 0.0000 -0.0000 -16.5260 -4.7553 18.6023 0.0000 0.0000 0.0000 83.4192 -13.8328 52.2452 -20.1405 30.8113 -5.6032 0.0000 0.0000 19.3037 -20.4034 -53.1742 16.5805 7.1250 -0.0000 -0.0000 64.7806 -79.1021 -54.3793
8.4969 15.5033 22.7023 -178.9440 0.0708 -179.7130 0.0000 0.0000 0.0000 -23.6778 -16.9574 -2.0484 1.7270 8.2726 23.5453 1.0050 8.5655 -23.8698 4.4798 -12.7729 -38.5241 0.0000 0.0000 0.0000 25.3554 13.2861 2.5583 -0.9606 -6.2406 17.4843 0.3597 -19.5637 -24.6467 -0.0181 0.8684 -2.3869 1.0166 1.0152 9.2378 -0.1367 1.5499 -4.3864 -0.9951 0.7026 -9.8528 -6.0471 -2.8601 -5.6123 6.3236 -3.7202 3.8201 3.0049 -1.7855 2.4970 -0.0000 -0.0000 0.0000 -83.5195 15.6440 41.6110 21.1856 -32.0444 -6.1481 -0.0000 -0.0000 8.0712 3.1523 -36.1575 -1.8611 -7.1250 0.0000 -0.0000 -16.2034 -4.9634 18.2629 -0.0000 -0.0000 0.0000 83.2105 -13.8938 52.4722 -20.2679 30.9638 -5.6685 0.0000 0.0000 19.9234 -21.8349 -52.8446 17.7104 7.1250 -0.0000 -0.0000 62.7542 -79.6062 -53.0144
8.5134 15.5094 22.7431 -178.9660 -0.8822 -179.2460 0.0000 0.0000 0.0000 -23.3592 -17.3222 -2.8521 1.7326 8.2854 23.5842 0.9941 7.9294 -23.2905 4.6427 -12.9697 -39.2552 0.0000 0.0000 0.0000 25.3066 13.1841 1.8850 -0.9647 -6.2536 17.5219 0.4270 -20.0484 -24.8158 -0.0149 0.7887 -2.1675 0.8337 0.7866 9.5173 -0.1156 1.0941 -4.6441 -0.7879 0.4357 -10.3171 -6.0580 -2.8357 -5.4030 6.3809 -3.6898 3.5386 3.0275 -1.7728 2.3638 -0.0000 -0.0000 0.0000 -83.2779 15.6554 41.8553 21.2812 -32.1551 -6.1989 -0.0000 -0.0000 7.8147 3.3732 -36.2680 -1.9970 -7.1250 0.0000 -0.0000 -16.0929 -5.0922 18.1613 -0.0000 -0.0000 0.0000 82.9706 -13.9854 52.7359 -20.4238 31.1496 -5.7490 0.0000 0.0000 20.6022 -23.7330 -52.4223 19.2104 7.1250 -0.0000 -0.0000 59.9863 -80.2829 -51.1306
